<?xml version="1.0" encoding="utf-8"?>
<!-- Generator: Adobe Illustrator 15.0.2, SVG Export Plug-In . SVG Version: 6.00 Build 0)  -->
<!DOCTYPE svg PUBLIC "-//W3C//DTD SVG 1.1//EN" "http://www.w3.org/Graphics/SVG/1.1/DTD/svg11.dtd">
<svg version="1.1" id="Ebene_1" xmlns="http://www.w3.org/2000/svg" xmlns:xlink="http://www.w3.org/1999/xlink" x="0px" y="0px"
	 width="443.92px" height="98.24px" viewBox="0 0 443.92 98.24" enable-background="new 0 0 443.92 98.24" xml:space="preserve">
<g>
	<path fill="#999999" d="M0.323,49.42c0.387,0.145,0.909,0.22,1.505,0.22c2.807,0,3.645-1.747,3.645-3.57v-9.63H3.613v9.04
		c0,1.576-0.447,2.523-2.121,2.523c-0.355,0-0.763-0.033-1.169-0.185V49.42L0.323,49.42z M9.936,42.929
		c0-2.643,1.414-5.099,4.28-5.079c2.863-0.02,4.275,2.437,4.275,5.079c0,2.578-1.285,5.073-4.275,5.073
		C11.221,48.002,9.936,45.507,9.936,42.929L9.936,42.929z M7.964,42.929c0,3.942,2.288,6.711,6.251,6.711
		c3.959,0,6.246-2.769,6.246-6.711c0-3.85-2.305-6.715-6.246-6.715C10.269,36.213,7.964,39.079,7.964,42.929L7.964,42.929z
		 M23.008,49.42h1.86v-5.913h6.212v5.913h1.861V36.439H31.08v5.426h-6.212v-5.426h-1.86V49.42L23.008,49.42z M33.793,49.42h1.953
		l1.321-3.279h6.362l1.319,3.279h2.027l-5.487-12.981h-1.951L33.793,49.42L33.793,49.42z M42.831,44.62h-5.168l2.583-6.432
		L42.831,44.62L42.831,44.62z M47.891,49.42h1.86V38.743h0.038l5.875,10.677h2.381V36.439h-1.861v10.446h-0.037l-5.727-10.446
		h-2.529V49.42L47.891,49.42z M61.317,49.42h1.862V38.743h0.036l5.875,10.677h2.381V36.439h-1.861v10.446h-0.038l-5.726-10.446
		h-2.528V49.42L61.317,49.42z M75.228,49.42h7.271v-1.639h-5.414v-4.274h4.929v-1.642h-4.929v-3.791h5.414v-1.635h-7.271V49.42
		L75.228,49.42z M91.631,36.678c-0.896-0.313-1.917-0.464-2.773-0.464c-2.343,0-4.166,1.23-4.166,3.533
		c0,4.038,5.581,3.235,5.581,6.138c0,1.525-1.488,2.118-2.548,2.118c-0.949,0-2.063-0.366-2.696-0.63l-0.187,1.729
		c0.856,0.284,1.748,0.539,2.661,0.539c2.603,0,4.739-1.091,4.739-3.867c0-4.28-5.577-3.7-5.577-6.196
		c0-1.351,1.226-1.727,2.27-1.727c0.966,0,1.486,0.167,2.435,0.541L91.631,36.678L91.631,36.678z"/>
	<path fill="#999999" d="M251.348,70.248h1.862v-11.24h0.038l4.292,11.24h1.829l4.293-11.24h0.033v11.24h1.86V57.259h-3.064
		l-4.002,10.79l-4.071-10.79h-3.07V70.248L251.348,70.248z M266.713,70.248h1.951l1.313-3.276h6.361l1.326,3.276h2.026
		l-5.488-12.989h-1.947L266.713,70.248L266.713,70.248z M275.752,65.449h-5.171l2.586-6.441L275.752,65.449L275.752,65.449z
		 M280.915,70.248h1.858V57.259h-1.858V70.248L280.915,70.248z M286.625,70.248h1.861V59.567h0.036l5.877,10.681h2.384V57.259
		h-1.864v10.457h-0.037l-5.727-10.457h-2.53V70.248L286.625,70.248z M298.823,70.248h8.984v-1.64h-6.822l6.709-9.672v-1.678h-8.645
		v1.638h6.504l-6.73,9.671V70.248L298.823,70.248z"/>
	<path fill="#999999" d="M73.891,57.248h-3.18v12.585c0,4.26-1.337,7.189-5.437,7.189s-5.438-2.93-5.438-7.189V57.248h-3.175V70.25
		c0,6.224,3.146,9.57,8.613,9.57c5.47,0,8.617-3.347,8.617-9.57V57.248L73.891,57.248z M79.865,79.436h3.18V61.187h0.063
		l10.046,18.249h4.068V57.248h-3.179v17.864H93.98l-9.792-17.864h-4.324V79.436L79.865,79.436z M103.484,79.436h3.178V57.248h-3.178
		V79.436L103.484,79.436z M130.187,57.248h-3.339l-7.025,19.387h-0.062l-6.837-19.387h-3.556l8.36,22.188h3.972L130.187,57.248
		L130.187,57.248z M133.045,79.436h12.432v-2.801h-9.252v-7.311h8.423v-2.798h-8.423v-6.485h9.252v-2.793h-12.432V79.436
		L133.045,79.436z M151.323,79.436h3.181v-9.854h1.907c1.684,0,2.736,0,3.722,2.157l3.398,7.697h3.626l-4.197-8.837
		c-0.701-1.373-1.174-1.845-2.163-2.222v-0.07c2.575-0.439,4.577-2.349,4.577-5.052c0-5.312-4.225-6.007-8.613-6.007h-5.438V79.436
		L151.323,79.436z M154.504,60.041h3.051c2.924,0,4.451,1.274,4.451,3.276c0,2.132-1.78,3.461-4.8,3.461h-2.701V60.041
		L154.504,60.041z M182.415,57.655c-1.527-0.536-3.273-0.789-4.742-0.789c-4.003,0-7.115,2.095-7.115,6.041
		c0,6.892,9.536,5.528,9.536,10.487c0,2.604-2.545,3.628-4.353,3.628c-1.626,0-3.533-0.636-4.612-1.085l-0.318,2.96
		c1.462,0.475,2.985,0.923,4.546,0.923c4.455,0,8.105-1.884,8.105-6.617c0-7.308-9.536-6.325-9.536-10.586
		c0-2.319,2.099-2.959,3.878-2.959c1.65,0,2.541,0.292,4.168,0.924L182.415,57.655L182.415,57.655z M188.419,79.436h3.181V57.248
		h-3.181V79.436L188.419,79.436z M201.357,79.436h3.18V60.041h6.899v-2.793h-16.971v2.793h6.892V79.436L201.357,79.436z
		 M215.028,55.397h2.989v-3.175h-2.989V55.397L215.028,55.397z M220.242,55.397h2.99v-3.175h-2.99V55.397L220.242,55.397z
		 M208.038,79.436h3.338l2.256-5.596h10.87l2.258,5.596h3.467l-9.378-22.188h-3.338L208.038,79.436L208.038,79.436z M223.486,71.23
		h-8.838l4.42-10.996L223.486,71.23L223.486,71.23z M233.718,79.436h3.182V60.041h6.897v-2.793h-16.978v2.793h6.898V79.436
		L233.718,79.436z"/>
	<path fill="#999999" d="M118.497,27.874c-1.845-0.637-3.272-1.111-6.515-1.111c-6.772,0-11.732,4.545-11.732,11.382
		c0,7.055,4.673,11.564,11.698,11.564c3.465,0,5.56-0.57,6.772-0.985V37.19h-7.854v2.603h4.673v6.744
		c-0.794,0.153-1.365,0.375-3.557,0.375c-4.612,0-8.361-3.461-8.361-8.671c0-4.961,3.399-8.681,8.519-8.681
		c2.86,0,4.542,0.509,6.101,1.527L118.497,27.874L118.497,27.874z M141.607,27.146h-3.18V39.73c0,4.259-1.336,7.182-5.438,7.182
		c-4.097,0-5.432-2.923-5.432-7.182V27.146h-3.181v12.997c0,6.229,3.15,9.565,8.613,9.565c5.472,0,8.618-3.336,8.618-9.565V27.146
		L141.607,27.146z M150.762,49.334h3.177V29.938h6.898v-2.791h-16.974v2.791h6.898V49.334L150.762,49.334z M163.54,49.334h12.428
		v-2.797h-9.248v-7.31h8.422v-2.8h-8.422v-6.49h9.248v-2.791H163.54V49.334L163.54,49.334z M181.98,49.334h3.176V31.087h0.065
		l10.038,18.247h4.075V27.146h-3.177v17.865h-0.065L186.3,27.146h-4.319V49.334L181.98,49.334z M206.678,49.334h5.914
		c4.518,0,8.452-1.149,8.452-5.916c0-3.116-2.129-5.084-5.146-5.339v-0.063c2.798-0.7,4.574-2.225,4.574-5.282
		c0-4.096-3.173-5.588-7.785-5.588h-6.01V49.334L206.678,49.334z M209.855,39.227h2.065c2.735,0,5.754,0.473,5.754,3.904
		c0,2.992-2.574,3.595-5.433,3.595h-2.387V39.227L209.855,39.227z M209.855,29.75h3.338c1.846,0,4.106,0.666,4.106,3.303
		c0,3.275-2.613,3.561-5.694,3.561h-1.75V29.75L209.855,29.75z M227.248,49.334h12.424v-2.797h-9.246v-7.31h8.418v-2.8h-8.418v-6.49
		h9.246v-2.791h-12.424V49.334L227.248,49.334z M245.205,49.334h3.174v-9.861h1.912c1.683,0,2.733,0,3.72,2.167l3.399,7.694h3.623
		l-4.191-8.842c-0.703-1.365-1.18-1.839-2.163-2.223v-0.064c2.577-0.444,4.578-2.351,4.578-5.053c0-5.309-4.228-6.006-8.618-6.006
		h-5.434V49.334L245.205,49.334z M248.379,29.938h3.062c2.92,0,4.446,1.271,4.446,3.278c0,2.127-1.785,3.462-4.8,3.462h-2.708
		V29.938L248.379,29.938z M281.605,27.874c-1.853-0.637-3.272-1.111-6.517-1.111c-6.773,0-11.732,4.545-11.732,11.382
		c0,7.055,4.671,11.564,11.701,11.564c3.464,0,5.559-0.57,6.767-0.985V37.19h-7.854v2.603h4.682v6.744
		c-0.804,0.153-1.372,0.375-3.563,0.375c-4.61,0-8.359-3.461-8.359-8.671c0-4.961,3.396-8.681,8.515-8.681
		c2.863,0,4.543,0.509,6.101,1.527L281.605,27.874L281.605,27.874z"/>
</g>
<g>
	<polygon fill="#C10B25" points="346,0.289 346,98.533 444.25,98.533 444.25,0.289 346,0.289 	"/>
	<g>
		<path fill="#FFFFFF" d="M361.837,61.121c0,3.514-0.217,7.97-2.028,7.97c-1.051,0-1.34-0.798-1.632-1.597
			c-0.288-0.761-0.614-1.555-1.812-1.555c-0.976,0-1.992,0.794-1.811,1.846c0.327,1.958,2.248,2.719,4.059,2.719
			c4.852,0,6.48-4.999,6.48-9.128V39.788c0-1.667,1.124-1.812,2.574-1.918l0.977-0.074l0.146-0.218v-0.724l-0.182-0.182
			c-1.45,0-3.622,0.182-5.433,0.182c-2.461,0-3.623-0.182-4.601-0.182c-0.218,0-0.544,0.036-0.581,0.437v0.577l0.182,0.184
			c3.041,0,3.66,0.507,3.66,2.569V61.121L361.837,61.121z M395.233,54.35c0-1.884,0.471-2.103,2.207-2.103h0.436
			c0.185,0,0.255-0.433,0.255-0.797c0-0.18,0.037-0.47-0.218-0.47h-10.466c-0.327,0-0.368,0.363-0.368,0.834
			c0,0.361,0.075,0.578,0.255,0.578h2.68c1.525,0,2.471,0.544,2.471,2.356v2.497c0,2.21-2.216,4.093-6.491,4.093
			c-5.648,0-10.391-5.576-10.391-11.914c0-8.694,6.697-11.847,10.969-11.847c4.78,0,6.995,2.753,7.463,5.506
			c0.04,0.146,0.218,0.146,0.434,0.146c0.185,0,0.766-0.11,0.766-0.326c0-1.595-0.185-4.455-0.255-4.743
			c-2.172-1.125-4.71-1.993-8.075-1.993c-4.171,0-15.359,2.172-15.359,13.907c0,5.505,4.598,12.673,14.993,12.673
			c1.664,0,5.903-0.504,8.696-2.243V54.35L395.233,54.35z"/>
		<path fill="#FFFFFF" d="M434.052,36.655h-3.688v14.621c0,4.946-1.549,8.344-6.317,8.344c-4.759,0-6.305-3.397-6.305-8.344V36.655
			h-3.697v15.1c0,7.238,3.657,11.111,10.002,11.111c6.354,0,10.006-3.873,10.006-11.111V36.655L434.052,36.655z"/>
		<polygon fill="#FFFFFF" points="404.938,18.463 404.938,79.428 406.901,79.428 406.901,18.463 404.938,18.463 		"/>
	</g>
</g>
</svg>
